<?xml version="1.0" encoding="utf-8"?>
<!-- Generator: Adobe Illustrator 22.1.0, SVG Export Plug-In . SVG Version: 6.00 Build 0)  -->
<svg version="1.1" id="Ñëîé_1" xmlns="http://www.w3.org/2000/svg" xmlns:xlink="http://www.w3.org/1999/xlink" x="0px" y="0px"
	 viewBox="0 0 352.5 329.5" style="enable-background:new 0 0 352.5 329.5;" xml:space="preserve">
<style type="text/css">
	.st0{fill:#82A5FA;}
	.st1{fill:#EDF3FF;}
	.st2{fill:#C1C1C1;}
	.st3{fill:#F5F7FD;}
	.st4{fill:#D8E5FF;}
	.st5{fill:#E4EDFF;}
	.st6{fill:#5D8AF9;}
	.st7{fill:#D2D2D2;}
	.st8{fill:#C7C7C7;}
	.st9{fill:#BABABA;}
	.st10{fill:#6590F9;}
	.st11{fill:#D2E1FF;}
	.st12{fill:#FFFFFF;}
	.st13{fill:#B3B3B3;}
	.st14{fill:#A9BDED;}
	.st15{fill:#BCCCF1;}
	.st16{fill:#CBD7F4;}
	.st17{fill:#B1C3EF;}
	.st18{fill:#3259CA;}
	.st19{fill:#606060;}
	.st20{fill:#757575;}
	.st21{fill:#858585;}
	.st22{fill:#B7B7B7;}
	.st23{fill:#E4E4E4;}
	.st24{fill:#FCFCFC;}
	.st25{font-family:'Overpass-Bold';}
	.st26{font-size:18.49px;}
	.st27{fill:#707070;}
	.st28{font-family:'RobotoCondensed-Light';}
	.st29{font-size:7px;}
	.st30{font-family:'Overpass-Regular';}
	.st31{font-size:21px;}
	.st32{font-size:19px;}
</style>
<title>situ-home-bg</title>
<path class="st0" d="M341.6,55.2h-78c-6,0-10.9-4.9-10.9-10.9c0,0,0,0,0-0.1l0,0c0-6,4.9-10.9,10.9-10.9l0,0h78
	c6,0,10.9,4.9,10.9,10.9l0,0C352.5,50.3,347.7,55.2,341.6,55.2C341.7,55.2,341.6,55.2,341.6,55.2z"/>
<path class="st0" d="M280.9,49.2v-8h-1.5V40h4.7v1.2h-1.5v8H280.9z"/>
<path class="st0" d="M284.8,49.2V40h2.1c0.4,0,0.8,0,1.3,0.1c0.3,0.1,0.6,0.2,0.9,0.4s0.5,0.5,0.6,0.8c0.1,0.4,0.2,0.8,0.2,1.2
	c0,0.5-0.1,1-0.3,1.4c-0.2,0.4-0.5,0.7-0.9,0.8l1.3,4.5h-1.7l-1.1-4.2h-0.7v4.2H284.8z M286.5,43.9h0.4c0.4,0,0.8-0.1,1.1-0.3
	c0.2-0.3,0.4-0.7,0.3-1.1c0-0.4-0.1-0.7-0.3-1.1c-0.3-0.2-0.6-0.4-1-0.3h-0.5V43.9z"/>
<path class="st0" d="M292.4,49.2v-3.5l-1.9-5.7h1.6l1.1,3.7l1.1-3.7h1.5l-1.9,5.7v3.5H292.4z"/>
<path class="st0" d="M299.4,49.2V40h1.6v9.2H299.4z"/>
<path class="st0" d="M303.4,49.2v-8h-1.5V40h4.7v1.2h-1.5v8H303.4z"/>
<path class="st0" d="M310.1,49.2V40h1.1l2.3,5.2V40h1.4v9.2h-1.1l-2.3-5.5v5.5H310.1z"/>
<path class="st0" d="M318.7,49.3c-0.7,0.1-1.5-0.2-2-0.8c-0.5-0.7-0.7-1.4-0.6-2.2v-3.4c0-0.4,0-0.9,0.1-1.3
	c0.1-0.3,0.2-0.7,0.5-0.9c0.2-0.3,0.5-0.5,0.8-0.6c0.4-0.1,0.8-0.2,1.2-0.2c0.7-0.1,1.5,0.2,2,0.8c0.5,0.7,0.7,1.4,0.6,2.2v3.4
	c0,0.4,0,0.9-0.1,1.3c-0.1,0.4-0.2,0.7-0.5,1c-0.2,0.3-0.5,0.5-0.8,0.6C319.5,49.3,319.1,49.3,318.7,49.3z M318.3,48
	c0.3,0.1,0.6,0.1,0.8,0c0.1,0,0.2-0.1,0.3-0.2c0.1-0.1,0.1-0.2,0.2-0.3c0-0.1,0.1-0.2,0.1-0.4c0-0.1,0-0.3,0-0.4v-4.2
	c0-0.2,0-0.4,0-0.6c0-0.1-0.1-0.3-0.1-0.4c-0.1-0.1-0.2-0.2-0.3-0.3c-0.2-0.1-0.3-0.1-0.5-0.1s-0.3,0-0.5,0.1
	c-0.1,0.1-0.2,0.2-0.3,0.3c-0.1,0.1-0.1,0.3-0.1,0.4c0,0.2,0,0.4,0,0.6v4.2c0,0.2,0,0.3,0,0.4c0,0.1,0,0.3,0.1,0.4
	c0,0.1,0.1,0.2,0.2,0.3C318.1,47.9,318.2,47.9,318.3,48L318.3,48z"/>
<path class="st0" d="M323.6,49.2l-1.3-9.2h1.4l0.8,5.9l1-5.9h1.1l1,5.9l0.8-5.9h1.4l-1.3,9.2h-1.3l-1-6.1l-1,6.1H323.6z"/>
<polygon class="st0" points="275.7,128.6 270,125.3 270,131.9 275.7,135.1 "/>
<polygon class="st1" points="284.7,128.3 279,125.1 279,137 284.7,140.3 "/>
<polygon class="st1" points="293.7,136.9 288,133.7 288,142.2 293.7,145.5 "/>
<polygon class="st1" points="302.6,139.6 297,136.4 297,147.4 302.6,150.7 "/>
<polygon class="st0" points="311.6,145.5 305.9,142.2 305.9,152.6 311.6,155.9 "/>
<polygon class="st2" points="320.6,148.1 314.9,144.8 314.9,157.8 320.6,161 "/>
<polygon class="st1" points="329.6,151.9 323.9,148.6 323.9,162.9 329.6,166.2 "/>
<polygon class="st0" points="338.5,153.6 332.9,150.3 332.9,168.1 338.5,171.4 "/>
<polygon class="st3" points="150.4,264.7 141.8,259.7 133.1,264.7 141.8,269.7 "/>
<polygon class="st4" points="141.8,265 141.8,259.4 152.1,253.4 152.1,259.1 "/>
<polygon class="st5" points="141.8,259.4 131.4,253.4 131.4,259.1 141.8,265 "/>
<polygon class="st1" points="152.1,253.4 141.8,247.5 131.4,253.4 141.8,259.4 "/>
<path class="st3" d="M161.5,167.9l3.7-31.7c21.5,1.1,42.7,5.2,63.2,12l-29.8,26.7C186.5,171,174.1,168.7,161.5,167.9z"/>
<path class="st6" d="M161.5,155.9l3.7-31.7c21.5,1.1,42.7,5.2,63.2,12L198.6,163C186.5,159.1,174.1,156.8,161.5,155.9z"/>
<polygon class="st6" points="161.5,88.7 197.8,90.3 198.6,95.8 198.6,163 170.3,152.3 161.5,156 "/>
<polygon class="st6" points="228.4,69 228.4,136.3 198.6,163 198.6,95.8 "/>
<path class="st0" d="M161.5,88.7l3.7-31.7c21.5,1.1,42.7,5.2,63.2,12l-29.8,26.7C186.5,91.9,174.1,89.5,161.5,88.7z"/>
<path class="st0" d="M198.5,97.2c-12-3.8-24.4-6.2-37-7.1v1c12.6,0.8,25,3.2,37,7.1l29.8-26.7v-1L198.5,97.2z"/>
<path class="st3" d="M150.3,167.2c-24.2-0.1-48.5,4.7-67.8,14.7l-38.9-22.5c31-16.6,70.9-24.6,110.4-23.9L150.3,167.2z"/>
<path class="st4" d="M150.3,155.5c-24.2-0.1-48.5,4.8-67.8,14.7l-38.9-22.5c31-16.6,70.9-24.6,110.4-23.9L150.3,155.5z"/>
<polygon class="st4" points="150.3,155.5 150.3,132.3 153.9,100.6 153.9,123.8 "/>
<polygon class="st4" points="82.5,147 125.8,108 150.3,132.3 150.3,155.5 87.2,155.1 82.5,170.2 "/>
<polygon class="st5" points="43.6,124.5 43.6,147.7 82.5,170.2 82.5,147 "/>
<path class="st1" d="M150.3,132.3c-24.2-0.1-48.5,4.7-67.8,14.7l-38.9-22.5c31-16.6,70.9-24.6,110.4-23.9L150.3,132.3z"/>
<path class="st1" d="M150.3,133.6c-24.2-0.1-48.5,4.7-67.8,14.7l-38.9-22.5v1.1l38.9,22.5c19.2-9.9,43.5-14.8,67.8-14.7l3.7-32.1
	h-0.1L150.3,133.6z"/>
<path class="st3" d="M234.4,255c23.8-22.3,19-51.9-14.5-71.2c-3.9-2.2-7.8-4.2-11.9-5.9l29.8-26.7c7.2,2.9,14.2,6.3,21,10.1
	c52.6,30.4,59.5,77.1,20.8,111.8L234.4,255z"/>
<path class="st7" d="M234.4,243.6c23.8-22.3,19-51.9-14.5-71.2c-3.9-2.2-7.8-4.2-11.9-5.9l29.8-26.7c7.2,2.9,14.2,6.3,21,10.1
	c52.6,30.4,59.5,77.1,20.8,111.8L234.4,243.6z"/>
<path class="st7" d="M208,125.2v41.3l26.4,9.8c0,0,34.3-18.7,34.3-19.1s-5.8-40.1-10-41.8S208,125.2,208,125.2z"/>
<polygon class="st8" points="234.4,243.6 234.4,202.3 279.6,220.4 279.6,261.8 "/>
<path class="st9" d="M279.6,194.5v67.3c0,0,23.5-19.9,24.6-46.3l-0.1-43.2l-27.5-4L279.6,194.5z"/>
<path class="st2" d="M234.4,202.3c23.8-22.3,19-51.9-14.5-71.2c-3.8-2.2-7.8-4.2-11.9-5.9l29.8-26.7c7.2,2.9,14.2,6.3,21,10.1
	c52.6,30.4,59.5,77.1,20.8,111.8L234.4,202.3z"/>
<path class="st2" d="M279.6,222l-45.2-18.2v1.1l45.2,18.2c16.5-14.8,24.8-31.9,24.6-48.9C304.1,190.9,295.9,207.5,279.6,222z"/>
<path class="st2" d="M249.3,174.5c0.4-15.1-9.3-30.3-29.3-41.8c-3.9-2.2-7.8-4.1-11.9-5.9v1.1c4.1,1.7,8.1,3.7,11.9,5.9
	C239.4,145,249.2,159.7,249.3,174.5z"/>
<path class="st10" d="M196.9,79.4c-4.8,2.5-10.6,2.5-15.4,0c-4.3-2.5-4.3-6.4,0-8.9c4.8-2.5,10.6-2.5,15.4,0
	C201.2,73,201.2,77,196.9,79.4z"/>
<path class="st8" d="M189.9,71.6c-1.1,1.6-2.6,2.8-4.4,3.6c-0.6,0.2-1.3,0.3-2,0.3c-0.4,0-0.6-0.4-0.6-0.7v-0.1
	c0.7-2,2.2-3.6,4.1-4.5C190.7,68.2,189.9,71.6,189.9,71.6z"/>
<path class="st8" d="M190.6,72.6c-0.5,1.1-0.8,2.3-1.1,3.5c0,1.1,0.3,2.1,0.8,3.1c0.2,0.4,0.8,0.6,1.2,0.4c0.1,0,0.1-0.1,0.2-0.1
	c1-0.9,1.6-2,1.8-3.3c0.2-2.7,0-3.2,0-3.2L190.6,72.6z"/>
<path class="st1" d="M195.8,40.2c0.2,2.4,0.2,4.7,0,7.1c-0.3,3.7-1.3,21.2-1.5,25.4c0,0,0.1,1.3-2.4,1s-2.3-1.7-2.3-1.7
	s-3.5,0-3.6-2.1s-3.5-24.4-3.5-32.4L195.8,40.2z"/>
<path class="st11" d="M189.7,72c-0.3,0-0.7,0-1-0.1l0,0L188,44.8L189.7,72z"/>
<path class="st8" d="M192.1,15.4c5.6,2.3,5.5,5.6,5.5,5.6c-0.6,6.7-0.8,13.5-0.7,20.2c0.2,3.4-18,3.6-15.3-5.4
	c3.2-10.6,2-19.3,3.5-20.6S190.7,14.8,192.1,15.4z"/>
<path class="st7" d="M193.9,18.3c-0.3,1.1-1.8,1.7-3.3,1.3s-2.6-1.6-2.3-2.8s1.8-1.7,3.3-1.3S194.2,17.2,193.9,18.3z"/>
<path class="st12" d="M191.5,20c-0.3,0-0.7-0.1-1-0.1c-1.7-0.4-2.8-1.8-2.5-3.1s2-2,3.6-1.5s2.8,1.8,2.5,3.1l0,0
	C193.8,19.5,192.7,20.2,191.5,20z M190.7,15.7c-0.9-0.1-1.8,0.4-2.1,1.3c-0.3,1,0.7,2.1,2.1,2.5s2.7-0.2,3-1.2s-0.7-2.1-2.1-2.5
	C191.3,15.7,191,15.7,190.7,15.7z"/>
<path class="st7" d="M189.9,15.1c0,0.7,0,1.3,0,2c0,0.6,1.9,1.1,2.4,0.6s0.3-1,0.4-2.9S189.9,15.1,189.9,15.1z"/>
<path class="st13" d="M192.7,14.8c-0.5,1.2-1.5,2.2-2.9,2.4v-1.6L192.7,14.8z"/>
<path class="st7" d="M194.2,10.3c0.6,2.3-0.8,4.6-3.1,5.2s-4.6-0.8-5.2-3.1c-0.6-2.3,0.8-4.6,3.1-5.2C191.2,6.6,193.6,8,194.2,10.3z
	"/>
<path class="st13" d="M191,11.5c-1.3,0.5-2.6,0.9-4,1c-1.6,0-1.3-1.4-1.3-1.4l4.9-0.7L191,11.5z"/>
<path class="st0" d="M186.5,11.8c1.2-0.5,2.6-0.7,3.9-0.5c0.4,0.1,0.8,0.3,1.1,0.7c0.1,0.1,0.2,0.2,0.3,0.2c0.3,0.1,0.9-1.3,1.5-1.3
	s1,0.4,0.5,1.2c-0.4,0.5-0.5,1.3-0.1,1.9c0.2,0.1,2.7-1.8,0.5-6.1s-7.8-2-8.7-1.1c0,0-0.9,0.8-1.7,0.1
	C183.9,6.8,183,13.1,186.5,11.8z"/>
<path class="st7" d="M182.3,14.4l-3-1.3c-0.3-0.2-0.6-0.4-0.7-0.8l-3-8.6l-1.4,0.2l2.4,10.7c0.1,0.5,0.4,0.9,0.9,1.2l5,2.8
	L182.3,14.4z"/>
<path class="st7" d="M213.6,15.8l0.7-0.3c0.6-0.3,1.1-0.6,1.6-1.1l0.5-0.5c0.3-0.3,0.3-0.7,0.2-1l0,0c-0.1-0.3-0.4-0.4-0.6-0.3
	c0,0,0,0-0.1,0l-1.5,0.7c0,0,0.2-0.6,0.1-0.8s-1.2,1.1-1.7,1.9S213.6,15.8,213.6,15.8z"/>
<path class="st7" d="M201.6,19.2l2.6-0.3c0.6-0.1,1.2-0.3,1.7-0.6l6.9-3.9l0.8,1.3l-7,5.4c-0.2,0.2-0.5,0.3-0.7,0.4l-4.2,1.8
	L201.6,19.2z"/>
<path class="st7" d="M174.3,3.9L174,3.6c-0.3-0.3-0.5-0.8-0.6-1.2l-0.2-1.3c-0.1-0.4,0.1-0.8,0.4-1l0,0c0.3-0.2,0.7-0.1,0.9,0.2
	c0,0,0,0.1,0.1,0.1l0.6,1.5c0,0-0.2-0.8,0-0.9s0.5,0.9,0.3,1.4c-0.1,0.4-0.1,0.8,0,1.2L174.3,3.9z"/>
<path class="st12" d="M188.3,14.4l-1.1-0.3c0.3,0.5,0.8,0.8,1.3,1c0.3,0.1,0.7,0,0.9-0.3v-0.1L188.3,14.4z"/>
<path class="st8" d="M186.6,14.7c0,0-5-1-6.6-1.5s-2.1,3.8-2,4.8s5.3,2.3,6,4.1S186.6,14.7,186.6,14.7z"/>
<path class="st8" d="M194.3,16.5c3.2,1.2,6.5,2,9.8,2.3c0.2,0,0.5,0.2,0.5,0.4c0.4,1.2,0.5,2.5,0.3,3.7c-0.1,0.6-0.7,1.1-1.3,1.1
	c-1.9,0-6.1,0.2-6.7,2C196,28.4,194.3,16.5,194.3,16.5z"/>
<path class="st12" d="M192.2,19.8l-1,1.1c-0.1,0.1-0.2,0.3-0.2,0.5l0.7,6c0,0.2,0,0.3-0.1,0.5l-2.2,2.8c-0.1,0.1-0.2,0.1-0.3,0
	l-0.1-0.1l-1.2-3.7c0-0.1,0-0.3,0-0.4l2.1-5.4c0-0.1,0-0.3,0-0.4l-0.3-1.4L192.2,19.8z"/>
<path class="st9" d="M87.7,94.8c0,0,0.7,3.8,3.8,4.7c1.7,0.3,2.9,1.9,2.8,3.6c0,0,1.5-4.4-1.2-6.8c-1.5-1.4-3.4-2-5.4-1.9L87.7,94.8
	z"/>
<circle class="st8" cx="83.1" cy="96.5" r="1.4"/>
<path class="st8" d="M88.9,94.4c0,0.8-0.6,1.4-1.4,1.4s-1.4-0.6-1.4-1.4s0.6-1.4,1.4-1.4l0,0C88.2,93,88.9,93.6,88.9,94.4z"/>
<path class="st14" d="M94.2,158.2c0.8-0.4,1.8-0.3,2.4,0.4c1.3,1.6,2.1,3.6,2.3,5.7c0.1,1.8-1.4,1.7-2.3,1.3s-3.5-4.2-3.6-4.9
	s0-1.4,0.4-1.9C93.7,158.5,94.2,158.2,94.2,158.2z"/>
<path class="st1" d="M93.8,157.8l-0.1,1.6c0,0.3,0.2,0.7,0.4,0.8c0.4,0.2,0.8,0.3,1.2,0.2c1.1-0.2,1.3-0.5,1.3-2.1
	S93.8,157.8,93.8,157.8z"/>
<path class="st14" d="M99.8,155.2c0.8-0.4,1.8-0.3,2.4,0.4c1.3,1.7,2.1,3.6,2.3,5.7c0,1.8-1.4,1.7-2.3,1.3s-3.5-4.2-3.6-4.9
	s0-1.4,0.4-1.9C99.2,155.5,99.5,155.3,99.8,155.2z"/>
<path class="st1" d="M99.4,154.8l-0.1,1.6c0,0.3,0.2,0.6,0.4,0.8c0.4,0.2,0.8,0.3,1.2,0.2c1.1-0.2,1.3-0.5,1.3-2.1
	S99.4,154.8,99.4,154.8z"/>
<path class="st6" d="M85.8,125.9c0.4-7.3,7.9,1.1,7.9,1.1l5.1,5l4.6,5.1c0.9,1,1.3,2.3,1.1,3.6l-1.9,14.2c-0.1,0.7-0.7,1.2-1.4,1.2
	c-0.2,0-0.5,0-0.7-0.1c-0.9-0.1-1.6-0.9-1.5-1.8l0.4-13.3l-9.7-5.8C89.8,135.1,85.4,133.2,85.8,125.9z"/>
<path class="st4" d="M95.8,138.4l1.4-0.5c0,0,2.4,2.2,2.3,3l-1,0.3l-2.6-2.5L95.8,138.4z"/>
<path class="st4" d="M87.8,141c0,0-5.8-3.3-6.4-4.7c-0.3-0.5-0.7-1.1,1-1.9l11,8.1l-2,0.6L87.8,141z"/>
<path class="st0" d="M80.3,128.7c0.5-7.3,7.9,1.1,7.9,1.1l5.1,5l4.6,5.1c0.9,1,1.3,2.3,1.1,3.7l-1.9,14.2c-0.1,0.7-0.7,1.2-1.4,1.2
	c-0.2,0-0.5,0-0.7-0.1c-0.9-0.1-1.6-0.9-1.6-1.8l0.4-13.3l-9.7-5.8C84.2,137.9,79.8,135.4,80.3,128.7z"/>
<path class="st8" d="M84.7,105.1c-5.7,2.4-5.6,5.7-5.6,5.7c0.6,6.8,0.9,13.7,0.7,20.5c-0.1,3.4,18.3,3.7,15.5-5.5
	c-3.2-10.8-2-19.6-3.5-20.9S86.2,104.5,84.7,105.1z"/>
<path class="st7" d="M82.9,108.1c0.3,1.1,1.8,1.8,3.4,1.4s2.6-1.7,2.3-2.8s-1.8-1.8-3.4-1.4S82.6,106.9,82.9,108.1z"/>
<path class="st12" d="M85.3,109.9c-0.4,0-0.9-0.1-1.3-0.2c-0.7-0.2-1.2-0.8-1.4-1.4c-0.3-1.3,0.8-2.7,2.5-3.1
	c0.8-0.2,1.6-0.2,2.3,0.1c0.7,0.2,1.2,0.8,1.4,1.4c0.3,1.3-0.8,2.7-2.5,3.1C86,109.8,85.6,109.9,85.3,109.9z M86.1,105.4
	c-0.3,0-0.6,0-0.9,0.1c-1.4,0.4-2.4,1.5-2.1,2.5l0,0c0.2,0.5,0.5,0.9,1.1,1.1s1.3,0.3,2,0.1c1.4-0.4,2.4-1.5,2.1-2.5
	c-0.1-0.5-0.5-0.9-1-1.1C86.9,105.5,86.6,105.4,86.1,105.4L86.1,105.4z"/>
<path class="st7" d="M87,104.9c0,0.7,0,1.3,0.1,2c0,0.6-2,1.1-2.5,0.6s-0.3-1.1-0.4-3S87,104.9,87,104.9z"/>
<path class="st13" d="M84.2,104.5c0.5,1.3,1.6,2.2,2.9,2.5v-1.6L84.2,104.5z"/>
<ellipse class="st7" cx="86.8" cy="101.1" rx="4.4" ry="4.4"/>
<path class="st13" d="M85.8,101.2c1.3,0.5,2.7,0.9,4.1,1c1.7,0,1.3-1.4,1.3-1.4l-4.9-0.7L85.8,101.2z"/>
<path class="st8" d="M90.4,101.5c-1.2-0.5-2.6-0.7-3.9-0.5c-0.4,0.1-0.8,0.3-1.1,0.7c-0.1,0.1-0.2,0.2-0.3,0.3
	c-0.3,0.1-0.9-1.3-1.5-1.3s-1.1,0.4-0.5,1.3s0.3,1.8,0.1,1.9c-0.2,0.1-2.8-1.8-0.5-6.2c2.2-4.4,7.9-2,8.8-1.1l0.1,0.1
	c1.2,0.8,1.8,2.3,1.4,3.7C92.5,101.3,91.8,102,90.4,101.5z"/>
<path class="st7" d="M82.3,119.8v3.3c0,0.4,0.2,0.7,0.4,1l6.8,6.2l-0.8,1.2l-9-6.5c-0.4-0.3-0.7-0.8-0.7-1.3l-0.6-5.8L82.3,119.8z"
	/>
<path class="st8" d="M79.6,109.2c0,0-2.1,3.1-2.8,11.3c0,0,3.5,1.1,5.6,0.5S79.6,109.2,79.6,109.2z"/>
<path class="st9" d="M82.7,113.1c0.4,2.1,0.7,4.2,0.9,6.4c0,0.6-0.3,1.1-0.9,1.3l0,0V113.1z"/>
<path class="st14" d="M84.5,134.7l1.5-0.2l9.8-5.6c0.4-0.2,0.8-0.2,1.2,0.1l6.9,4l0.9-0.1v0.9l0,0c0,0.1-0.1,0.3-0.2,0.3l-11,6.4
	c-0.4,0.2-0.8,0.2-1.2-0.1l-7.5-4.3c-0.2-0.1-0.3-0.3-0.3-0.4l0,0L84.5,134.7z"/>
<path class="st15" d="M91.8,131.1l0.7-0.4h7.6l3.8,2.2l0.9-0.1v0.9l0,0c0,0.1-0.1,0.3-0.2,0.3l-11,6.4c-0.2,0.1-0.4,0.1-0.6,0.1
	L91.8,131.1z"/>
<path class="st16" d="M104.3,132.8l0.4-0.1v0.9l0,0c0,0.1-0.1,0.3-0.2,0.3l-0.2,0.1C104.3,134,104.3,132.8,104.3,132.8z"/>
<path class="st17" d="M93.4,140.4c-0.3,0.1-0.7,0.1-1-0.1v-1.6h1V140.4z"/>
<path class="st12" d="M93.5,139.5l11-6.4c0.3-0.2,0.3-0.5-0.1-0.7l-7.5-4.3c-0.4-0.2-0.8-0.2-1.2,0l-11,6.4
	c-0.3,0.2-0.3,0.5,0.1,0.7l7.5,4.3C92.7,139.7,93.1,139.7,93.5,139.5z"/>
<path class="st3" d="M93.7,138.5l9.2-5.3c0.3-0.1,0.2-0.4-0.1-0.6l-4-2.3c-0.3-0.2-0.7-0.2-1,0l-9.2,5.3c-0.3,0.1-0.2,0.4,0.1,0.6
	l4,2.3C93,138.7,93.4,138.7,93.7,138.5z"/>
<path class="st7" d="M96.5,127.9l0.1,0.8c0.1,0.6,0.1,1.3-0.1,1.9l-0.1,0.7c-0.1,0.4-0.4,0.7-0.8,0.8l0,0c-0.3,0.1-0.6-0.1-0.6-0.4
	l0,0l-0.2-1.6c0,0-0.4,0.6-0.6,0.6s0.2-1.6,0.7-2.6S96.5,127.9,96.5,127.9z"/>
<path class="st7" d="M92.8,115.7l1.2,2.4c0.3,0.6,0.4,1.2,0.5,1.8l0.5,8h1.6l0.7-9c0-0.3,0-0.6,0-0.8l-0.8-4.6L92.8,115.7z"/>
<path class="st14" d="M93.9,140.1l0.9-1.2l9.7-5.6c0.4-0.2,0.6-0.7,0.6-1.1v-8l0.6-0.7l-0.5-0.3l0,0c-0.1-0.1-0.3-0.1-0.4,0l-11,6.4
	c-0.4,0.2-0.6,0.7-0.6,1.1v8.7c0,0.2,0.1,0.4,0.2,0.5l0,0L93.9,140.1z"/>
<path class="st15" d="M100.6,135.5l0.7-0.4l3.8-6.6v-4.3l0.6-0.7l-0.5-0.3l0,0c-0.1-0.1-0.3-0.1-0.4,0l-11,6.4
	c-0.2,0.1-0.3,0.3-0.4,0.5L100.6,135.5z"/>
<path class="st16" d="M105.4,123.8l0.3-0.3l-0.5-0.3l0,0c-0.1-0.1-0.3-0.1-0.4,0l-0.2,0.1L105.4,123.8z"/>
<path class="st17" d="M93.6,129.6c-0.3,0.2-0.4,0.6-0.5,0.9l1.1,0.6l0.5-0.9L93.6,129.6z"/>
<path class="st8" d="M94.2,129.9l11-6.4c0.3-0.2,0.6,0,0.6,0.4v8.7c0,0.4-0.2,0.8-0.6,1.1l-11,6.4c-0.3,0.2-0.6,0-0.6-0.4V131
	C93.7,130.5,93.9,130.1,94.2,129.9z"/>
<path class="st7" d="M88.8,131.6L89,132c0.2,0.4,0.5,0.8,0.9,1l1.1,0.7c0.3,0.2,0.8,0.2,1.1,0l0,0c0.3-0.2,0.4-0.6,0.2-0.9l-0.1-0.1
	l-1.1-1.2c0,0,0.6,0.5,0.8,0.3s-0.6-0.9-1.2-0.9c-0.4-0.1-0.8-0.2-1.1-0.5L88.8,131.6z"/>
<path class="st8" d="M91.7,105c0,0,4.2,4.6,5.9,8.8c-1.2,1.8-2.9,3.1-4.9,3.6C89.2,118.4,91.7,105,91.7,105z"/>
<path class="st9" d="M93.4,117.1l-0.7-6.6l1.6,6.2C94.1,116.8,93.8,117,93.4,117.1z"/>
<path class="st12" d="M88.6,104.1l1.1-0.3c-0.3,0.5-0.8,0.9-1.3,1.1c-0.3,0.2-0.7,0-0.9-0.3v-0.1L88.6,104.1z"/>
<path class="st7" d="M82.6,96.6c0,0,1,3.8-1.3,5.9c-1.4,1-1.8,2.9-1,4.5c0,0-3.3-3.3-1.9-6.6c0.7-1.9,2.2-3.3,4-4.1L82.6,96.6z"/>
<path class="st3" d="M242.5,150.7l-21.6-12.5c-0.3-0.2-0.8-0.3-1.1-0.1l0,0l-2.1,1.2l1.5,0.5v15.8c0,1.3,0.7,2.6,1.7,3.3l20.7,11.9
	v1.9l2.1-1.2l0,0c0.4-0.3,0.6-0.9,0.6-1.4V154C244.2,152.7,243.6,151.4,242.5,150.7z"/>
<path class="st3" d="M240.3,172.7l-21.6-12.5c-1.1-0.8-1.7-2-1.7-3.3v-16.1c0-1.3,0.8-1.9,1.7-1.3l21.6,12.5c1.1,0.8,1.7,2,1.7,3.3
	v16.1C242.1,172.6,241.3,173.2,240.3,172.7z"/>
<path class="st12" d="M240.3,151.9l-21.6-12.5c-0.4-0.3-1-0.3-1.3,0.1c0.3,0,0.5,0.1,0.8,0.2l21.6,12.5c1.1,0.8,1.7,2,1.7,3.3v16.1
	c0,0.4-0.1,0.9-0.4,1.2c0.6,0,1-0.6,1-1.5v-16.1C242.1,153.9,241.4,152.7,240.3,151.9z"/>
<path class="st12" d="M226,154.6c0,0.9-0.6,1.3-1.5,0.9c-0.9-0.6-1.4-1.5-1.5-2.5c0-0.9,0.7-1.3,1.5-0.9
	C225.4,152.6,225.9,153.6,226,154.6z"/>
<path class="st12" d="M230.4,157.2c0,0.9-0.7,1.3-1.5,0.8c-0.9-0.6-1.4-1.5-1.5-2.5c0-0.9,0.6-1.3,1.5-0.8
	C229.8,155.2,230.3,156.1,230.4,157.2z"/>
<path class="st12" d="M234.8,159.7c0,0.9-0.6,1.3-1.5,0.9c-0.9-0.6-1.4-1.5-1.5-2.5c0-0.9,0.7-1.3,1.5-0.9
	C234.2,157.7,234.8,158.7,234.8,159.7z"/>
<polygon class="st3" points="48.8,193.9 33.1,184.9 17.5,193.9 33.1,202.9 "/>
<polygon class="st3" points="33.1,184.9 17.5,175.8 1.8,184.9 17.5,193.9 "/>
<polygon class="st9" points="35.5,177.2 35.5,150.1 48.8,142.5 48.8,169.5 "/>
<polygon class="st7" points="35.5,150.1 22.2,142.5 22.2,169.5 35.5,177.2 "/>
<polygon class="st2" points="48.8,142.5 35.5,134.8 22.2,142.5 35.5,150.1 "/>
<polygon class="st18" points="48.8,179.8 35.5,172.1 35.5,177.2 48.8,184.9 "/>
<polygon class="st19" points="22.2,184.9 22.2,143.9 35.5,136.3 35.5,177.2 "/>
<polygon class="st20" points="22.2,143.9 8.9,136.3 8.9,177.2 22.2,184.9 "/>
<polygon class="st21" points="35.5,136.3 22.2,128.6 8.9,136.3 22.2,143.9 "/>
<polygon class="st6" points="22.2,184.9 22.2,143.9 35.5,136.3 35.5,177.2 "/>
<polygon class="st6" points="22.2,143.9 8.9,136.3 8.9,177.2 22.2,184.9 "/>
<polygon class="st0" points="35.5,136.3 22.2,128.6 8.9,136.3 22.2,143.9 "/>
<polygon class="st4" points="35.5,192.5 35.5,169.5 48.8,161.9 48.8,184.9 "/>
<polygon class="st5" points="35.5,169.5 22.2,161.9 22.2,184.9 35.5,192.5 "/>
<polygon class="st1" points="48.8,161.9 35.5,154.2 22.2,161.9 35.5,169.5 "/>
<path class="st3" d="M88.1,247.7c-9.3-5.4-24.5-5.4-33.8,0s-9.3,14.1,0,19.5s24.5,5.4,33.8,0S97.5,253.1,88.1,247.7z M79,261.9
	c-4.9,2.5-10.7,2.5-15.6,0c-4.3-2.5-4.3-6.5,0-9c4.9-2.5,10.7-2.5,15.6,0C83.3,255.4,83.3,259.5,79,261.9z"/>
<path class="st4" d="M50.8,240.3l8.5,0.1c0.7-0.9,1.7-1.7,2.7-2.3c4.7-2.7,12.1-2.9,17.2-0.6l5.1-4.8l7.8,0.1
	c-0.4-0.3-0.8-0.5-1.2-0.7c-10.9-6.3-28.4-6.3-39.3,0c-1.8,1-3.5,2.3-4.9,3.8L50.8,240.3z"/>
<polygon class="st5" points="92.1,220.5 92.1,232.9 84.3,232.8 84.3,220.4 "/>
<polygon class="st4" points="79.2,225.1 79.2,237.5 84.3,232.8 84.3,220.4 "/>
<path class="st4" d="M59.3,228v12.4l11.2-9.1l8.6,6.3v-12.4l-8-3.9c0,0-11,3.4-11.5,3.5S59.3,228,59.3,228z"/>
<polygon class="st4" points="50.8,227.9 50.8,240.3 59.3,240.4 59.3,228 "/>
<polygon class="st5" points="46.7,223.5 46.7,235.9 50.8,240.3 50.8,227.9 "/>
<path class="st1" d="M50.8,227.9l8.5,0.1c0.7-0.9,1.7-1.7,2.7-2.3c4.7-2.7,12.1-2.9,17.2-0.6l5.1-4.8l7.8,0.1
	c-0.4-0.3-0.8-0.5-1.2-0.7c-10.9-6.3-28.4-6.3-39.3,0c-1.8,1-3.5,2.3-4.9,3.8L50.8,227.9z"/>
<path class="st6" d="M81.7,226.7V238l7.4-1.7c0,0-0.4-6.7-0.6-6.8S81.7,226.7,81.7,226.7z"/>
<path class="st6" d="M76.2,238v12.4l0.8,0.9l5.2-3c0,0-0.8-9.5-0.9-9.6C79.6,238.3,77.9,238.1,76.2,238z"/>
<path class="st6" d="M86.2,234.8l-4.5,4.2c3.7,2.9,3.3,7.1-1.3,9.8c-1.3,0.7-2.8,1.3-4.3,1.6l4.6,4.9l-4.1,3.8c5-0.5,9.8-2,14.2-4.4
	c9.3-5.4,10.6-13.6,3.9-19.8L86.2,234.8z"/>
<polygon class="st6" points="76.7,246.8 76.7,259.2 86.8,255.3 99,243.7 98.9,230.5 86.1,240.7 "/>
<path class="st0" d="M86.2,222.4l-4.5,4.2c3.7,2.9,3.3,7.1-1.3,9.7c-1.3,0.7-2.8,1.3-4.3,1.6l4.6,4.9l-4.1,3.8c5-0.5,9.8-2,14.2-4.4
	c9.3-5.4,10.6-13.6,3.9-19.8H86.2z"/>
<path class="st7" d="M76.6,255.3l-4.1-4.3c-3.7,0.3-7.3-0.5-10.6-2.2c-3-1.7-4.2-4.1-3.7-6.3l-9.7-0.1l-3.7-4
	c-3.3,5.6-1,12,6.7,16.5c5.7,3.3,13.2,4.8,20.6,4.7L76.6,255.3z"/>
<polygon class="st7" points="72.2,247.1 72.2,259.5 43.4,243.6 43.4,231.2 47.6,232.9 "/>
<polygon class="st8" points="76.7,242.9 76.7,255.3 72.2,259.5 72.2,247.1 "/>
<path class="st2" d="M76.6,242.9l-4.1-4.3c-3.7,0.3-7.3-0.5-10.6-2.2c-3-1.7-4.2-4.1-3.7-6.3l-9.7-0.1l-3.7-4
	c-3.3,5.6-1,12,6.7,16.5c5.7,3.3,13.2,4.8,20.6,4.7L76.6,242.9z"/>
<path class="st9" d="M203.2,22.9c-1.1,0.1-3.8,0.4-5.9,0.5c-1.1,0.1-1.8,1-1.7,2.1c0,0.1,0,0.2,0.1,0.3c1.1,4.3-0.4,11.1-0.1,13.4
	c0.3,2.8-1.4,3.8-1.4,3.8c1.6-0.3,2.8-1,2.7-1.9c-0.1-5.2,0-10.5,0.4-15.7c1.2-1.3,4.7-1.5,6.4-1.5c0.7,0,1.2-0.5,1.3-1.1
	c0.1-0.7,0.1-1.5,0-2.2C205.1,21.8,204.3,22.8,203.2,22.9z"/>
<path class="st3" d="M283.9,106.6l-24.8-14.3c-0.7-0.5-1.1-1.3-1.1-2.1V70.6c0-0.8,0.5-1.2,1.1-0.8l24.8,14.3
	c0.7,0.5,1.1,1.3,1.1,2.1v19.5C285,106.6,284.5,106.9,283.9,106.6z"/>
<path class="st0" d="M266.6,93.4l-0.2-0.1c-0.7-0.5-1.2-1.3-1.2-2.2v-9.3c0-0.9,0.5-1.3,1.2-0.9l0.2,0.1c0.7,0.5,1.2,1.3,1.2,2.2
	v9.3C267.8,93.4,267.3,93.8,266.6,93.4z"/>
<path class="st0" d="M271.6,96.3l-0.2-0.1c-0.7-0.5-1.2-1.3-1.2-2.2v-5.4c0-0.9,0.5-1.3,1.2-0.9l0.2,0.1c0.7,0.5,1.2,1.4,1.2,2.2
	v5.4C272.8,96.3,272.2,96.7,271.6,96.3z"/>
<path class="st12" d="M276.6,99.2l-0.2-0.1c-0.7-0.5-1.2-1.3-1.2-2.2v-13c0-0.9,0.5-1.3,1.2-0.9l0.2,0.1c0.7,0.5,1.2,1.4,1.2,2.2v13
	C277.8,99.1,277.2,99.5,276.6,99.2z"/>
<polygon class="st3" points="166.5,245.3 175.8,239.9 185.2,245.3 175.8,250.7 "/>
<polygon class="st0" points="175.8,245.3 175.8,205.7 166.5,200.3 166.5,239.9 "/>
<polygon class="st6" points="175.8,205.7 185.2,200.3 185.2,239.9 175.8,245.3 "/>
<polygon class="st0" points="166.5,200.3 175.8,194.9 185.2,200.3 175.8,205.7 "/>
<polygon class="st6" points="169.8,200.3 175.8,196.8 181.9,200.3 175.8,203.8 "/>
<polygon class="st0" points="175.8,200.2 175.8,195.4 166.5,190 166.5,194.8 "/>
<polygon class="st6" points="175.8,195.4 185.2,190 185.2,194.8 175.8,200.2 "/>
<polygon class="st0" points="166.5,190 175.8,184.6 185.2,190 175.8,195.4 "/>
<path class="st3" d="M190,233.1c4.4,2.3,9.7,2.3,14.1,0c3.9-2.3,3.9-5.9,0-8.2c-4.4-2.3-9.7-2.3-14.1,0
	C186.1,227.2,186.1,230.9,190,233.1z"/>
<path class="st22" d="M202.7,159.4c0,0-0.3,5.3-0.7,8.9s-9-2.7-9-2.7v-4L202.7,159.4z"/>
<path class="st14" d="M198.2,225.2c-1.1,1.6-2.7,2.9-4.6,3.7c-0.6,0.2-1.3,0.3-2,0.3c-0.4-0.1-0.6-0.4-0.6-0.8v-0.1
	c0.8-2.1,2.3-3.7,4.3-4.7C199,221.7,198.2,225.2,198.2,225.2z"/>
<path class="st14" d="M198.9,226.3c-0.5,1.2-0.9,2.4-1.1,3.6c0,1.1,0.3,2.2,0.9,3.2c0.2,0.5,0.8,0.6,1.2,0.4c0.1,0,0.1-0.1,0.2-0.1
	c1-0.9,1.7-2.1,1.8-3.4c0.3-2.8,0-3.3,0-3.3L198.9,226.3z"/>
<path class="st1" d="M204.2,192.8c0.2,2.5,0.2,4.9,0,7.4c-0.3,3.9-1.3,21.9-1.5,26.3c0,0,0.1,1.3-2.5,1s-2.3-1.8-2.3-1.8
	s-3.6-0.1-3.7-2.1s-3.7-25.2-3.7-33.5L204.2,192.8z"/>
<path class="st7" d="M189.2,174.8l-1.8,2.7l-6,7.3c0.2,0.4,0.5,0.8,1,0.9c0.6,0.1,5.6-4.7,7.8-6.8c0.6-0.6,0.7-1.5,0.2-2.1
	L189.2,174.8z"/>
<path class="st2" d="M192.7,163.6c0,0-2.8-0.1-3.8,3.9s-1.7,9.1-0.9,9.5c1.3,0.8,2.9,0.7,4.1-0.2L192.7,163.6z"/>
<path class="st8" d="M191.8,163.8c0.5-0.2,1-0.2,1.5-0.1c2.4,0.7,11.3,3.3,12.8,4.6c1.7,1.4-2.5,9.6-2.5,12.3s0.4,5.8,0.6,8.7
	s0.5,4.5-1.8,5.7c-3.1,1.4-6.7,1-9.5-1c-3-2.3-2.5-3.9-2.4-5.6s1.2-9,1.1-11c-0.7-0.6-1.4-1.3-1.9-2.1c-0.8-1.4,0.6-3.8,1.2-5.4
	s-0.3-3.5-0.1-4.8C190.9,164.5,191.3,164,191.8,163.8z"/>
<path class="st12" d="M194.7,166.6c-0.2,1.5,1.2,2.9,3,3.1s3.5-0.8,3.7-2.2s-1.2-2.9-3-3.1S194.9,165.1,194.7,166.6z"/>
<path class="st7" d="M195.6,166.7c-0.5,1.3,0.2,2.7,1.5,3.2s2.7-0.2,3.2-1.5s-0.2-2.7-1.5-3.2c-0.2-0.1-0.4-0.1-0.6-0.1
	C197.1,164.8,195.9,165.5,195.6,166.7z"/>
<path class="st7" d="M196.9,163.3c0,0,1.6-1.3,1.9-0.6c0.3,1.2,0.5,2.3,0.6,3.5l-3.2,0.9l0.5-2.9
	C196.7,164.1,196.1,163.6,196.9,163.3z"/>
<path class="st7" d="M191.9,160.1c0.2,2.6,2.4,4.6,5,4.5s4.6-2.4,4.5-5c-0.2-2.6-2.4-4.6-5-4.5C193.8,155.2,191.8,157.5,191.9,160.1
	z"/>
<path class="st13" d="M199.1,163.4c0,0.2,0,0.3,0.1,0.5c-0.3,1.6-2.8,2.4-2.8,2.4l0.4-2.2c0,0-0.3-0.3-0.2-0.5
	C197.5,163.3,198.7,163,199.1,163.4z"/>
<path class="st7" d="M191.9,160.1c0.2,2.6,2.4,4.6,5,4.5s4.6-2.4,4.5-5c-0.2-2.6-2.4-4.6-5-4.5C193.8,155.2,191.8,157.5,191.9,160.1
	z"/>
<polygon class="st7" points="208.5,180 207.9,192.8 206.1,193 204.9,181.5 "/>
<path class="st2" d="M202.3,178.9c0.1-0.4,0.9-0.8,1-1.4c0.4-2.4,0.7-4.9,0.8-7.4l0.5,6c-0.6,1.4-0.9,2.9-1.1,4.4
	c0,1.6,0.1,3.3,0.3,5.1l0,0C203.9,185.6,201.7,181.7,202.3,178.9z"/>
<path class="st7" d="M205.7,168c0,0,1.5,0.6,2.3,5.2s1.5,9.2,0,9.8s-2.8,1-3.2-0.2s-0.7-7.1-0.8-9.3S203.9,168.4,205.7,168z"/>
<path class="st7" d="M181.9,184.2c-0.5,0.2-1,0.5-1.4,0.9s-0.7,0.8-1,1.3c-0.5,0.7-0.9,2.2-0.6,2.4s1.9-2.5,2.2-1.9s0,1.2,0.3,1.2
	s1.5-2.7,2.4-3.6S181.9,184.2,181.9,184.2z"/>
<path class="st11" d="M197.9,225.7c-0.3,0-0.7,0-1-0.1l0,0l-0.7-28.1L197.9,225.7z"/>
<path class="st8" d="M200.6,210.5l1-1.3l10.4-6c0.4-0.3,0.6-0.7,0.6-1.2v-8.6l0.6-0.8l-0.6-0.3l0,0c-0.1-0.1-0.3-0.1-0.4,0
	l-11.9,6.9c-0.4,0.3-0.6,0.7-0.6,1.2v9.3c0,0.2,0.1,0.4,0.2,0.5l0,0L200.6,210.5z"/>
<path class="st23" d="M207.8,205.6l0.7-0.4l4.1-7.1v-4.6l0.6-0.8l-0.6-0.3l0,0c-0.1-0.1-0.3-0.1-0.4,0l-11.8,6.9
	c-0.2,0.1-0.3,0.3-0.5,0.5L207.8,205.6z"/>
<path class="st23" d="M213,193.1l0.3-0.4l-0.6-0.3l0,0c-0.1-0.1-0.3-0.1-0.4,0l-0.2,0.1L213,193.1z"/>
<path class="st8" d="M200.3,199.3c-0.3,0.3-0.5,0.6-0.5,1l1.2,0.7l0.5-1L200.3,199.3z"/>
<path class="st7" d="M201,199.6l11.8-6.9c0.3-0.2,0.6,0,0.6,0.4v9.3c0,0.5-0.2,0.9-0.6,1.2l-11.8,6.9c-0.3,0.2-0.6,0-0.6-0.5v-9.3
	C200.4,200.3,200.6,199.8,201,199.6z"/>
<path class="st7" d="M207.9,192.7c0.2,1.3,0.4,2.6,0.4,3.9c-0.1,1-0.6,2.5-1,2.5s0-3.8-0.7-3.5s-0.8,1-1.1,0.8s0.5-3.5,0.3-4.9
	S207.9,192.7,207.9,192.7z"/>
<path class="st13" d="M194.9,160.2c-2.4,0.9-2.9,0.3-2.9,0.3s0-0.3,0-0.4c0-0.5,0-1,0.2-1.5l6.2-0.8
	C197.5,158.9,196.3,159.8,194.9,160.2z"/>
<path class="st22" d="M191.8,155.4c1.6-1.8,3.9-2.6,6.3-2.3c2.3,0.4,4.2,1.9,4.6,5.5c0.3,2.4-0.6,4.7-2.2,6.5l-0.3-0.1
	c-0.9-0.6-1-0.9-1-0.9l-0.2-1.8c0-0.3,0.2-0.5,0.5-0.5s0.5-0.2,0.7-0.4c0.4-0.4,0.4-1.1-0.1-1.5c-0.2-0.2-0.5-0.3-0.7-0.3
	c-0.4,0-0.7-0.2-0.8-0.6c-0.1-0.2-0.3-0.4-0.5-0.3l0,0c-1.2,0.4-4.1,1.4-6,0.8C189.5,158.7,191.2,155.8,191.8,155.4z"/>
<path class="st12" d="M194.5,162.4L193,162c0.4,0.6,1,1.1,1.7,1.4c1,0.3,1.2-0.6,1.2-0.6L194.5,162.4z"/>
<polygon class="st23" points="205.4,196.4 206.7,195.6 206.2,196.4 205.6,196.6 "/>
<polygon class="st3" points="4.2,243.7 13.6,238.3 23,243.7 13.6,249.1 "/>
<polygon class="st19" points="13.6,243.7 13.6,214.9 4.2,209.5 4.2,238.3 "/>
<polygon class="st9" points="13.6,214.9 23,209.5 23,238.3 13.6,243.7 "/>
<polygon class="st7" points="13.6,243.7 13.6,214.9 4.2,209.5 4.2,238.3 "/>
<polygon class="st2" points="4.2,209.5 13.6,204.1 23,209.5 13.6,214.9 "/>
<polygon class="st3" points="194.1,265.4 203.5,260 212.8,265.4 203.5,270.8 "/>
<polygon class="st0" points="203.5,265.4 203.5,249.1 194.1,243.7 194.1,260 "/>
<polygon class="st6" points="203.5,249.1 212.8,243.7 212.8,260 203.5,265.4 "/>
<polygon class="st0" points="194.1,243.7 203.5,238.3 212.8,243.7 203.5,249.1 "/>
<ellipse class="st3" cx="123.8" cy="224.1" rx="13.4" ry="7.8"/>
<path class="st14" d="M115.6,219.9c-1,0.5-1.6,1.5-1.4,2.6c0,0.4,0.1,0.9,0.2,1.3c0.6,1,1.8,1.4,2.8,0.9c1.6-0.6,5-3.9,5.1-6
	C122.6,214.7,118.1,218.9,115.6,219.9z"/>
<path class="st14" d="M124.7,226.5c-0.2,0.9-0.2,1.8-0.2,2.7c0.7,0.9,1.8,1.3,2.9,1.1c1.6-0.2,6.2-1.8,7.2-4.8
	c1.6-4.7-8.9,0.4-8.9,0.4L124.7,226.5z"/>
<path class="st1" d="M129.3,190.1l0.4,35.6c0,1.2-0.8,2.2-1.9,2.5c-0.1,0-0.3,0.1-0.4,0.1c-0.8,0.1-1.6-0.2-2.1-0.9
	c-0.3-0.4-0.5-0.9-0.5-1.4l-0.5-15.2l-2.3-13.6l-3.1,24c0,0.6-0.3,1.2-0.9,1.6c-0.4,0.3-0.9,0.4-1.4,0.4c-0.7,0-1.4-0.4-1.9-0.9
	c-0.3-0.4-0.5-0.8-0.5-1.3l1.2-14.5l0.5-18.4L129.3,190.1z"/>
<path class="st7" d="M124.6,158.2l-0.6,3.2c0,0.7,0.5,1.3,1.2,1.4c1.2,0.3,1.6-0.5,1.6-0.5l0.6-3.6L124.6,158.2z"/>
<path class="st7" d="M131.4,156.5c-0.7,2.6-3.4,4.2-6,3.6c-2.9-0.5-4.8-3.3-4.3-6.2s3.3-4.8,6.2-4.3s4.8,3.3,4.3,6.2
	C131.6,156,131.5,156.2,131.4,156.5z"/>
<path class="st8" d="M124.8,161.5c-0.1,0-5.2-3.4-7.1,0.1c-3.1,5.7-0.8,12.1-1.9,26.2c-0.2,2.4,3.2,3.8,4.8,4.7
	c1.4,0.8,3,1.3,4.6,1.3s4.7-1.4,4.6-3.5c-0.5-9.7,0.3-17.8,1.1-25.8C130.8,164.6,129.8,163.6,124.8,161.5z"/>
<path class="st11" d="M121.9,197.1l-3.1,24c0,0.6-0.3,1.2-0.9,1.6l-0.3,0.1c0.6-0.5,2.6-20.6,2.9-22.9S121.9,197.1,121.9,197.1z"/>
<polygon class="st7" points="141.3,162.6 144.1,153.4 142.6,152.8 139.3,160 "/>
<polygon class="st7" points="113.1,155.4 115.1,145.8 116.8,145.9 116.2,153.8 "/>
<path class="st8" d="M130.8,164.6c0,0,5,1,8.2-4.9c0.2-0.4,0.7-0.5,1.1-0.3c0.1,0.1,0.2,0.1,0.3,0.2c0.7,0.9,1,2.1,0.8,3.3
	c-1.6,5.7-10,7-11.5,10.3S130.8,164.6,130.8,164.6z"/>
<path class="st8" d="M121.5,160.4c0,0-4,0.3-4.6-3.1c-0.2-1.1-0.3-2.3-0.4-3.4c0-0.4-0.3-0.7-0.7-0.7c0,0,0,0-0.1,0
	c-0.9,0.1-2.4,0.4-2.6,1.1c-0.3,0.9-0.9,5.6,3.1,12.8C118.8,171.7,121.5,160.4,121.5,160.4z"/>
<path class="st7" d="M115.2,145.9v-1.1c0-0.4,0.1-0.8,0.3-1.1l1.1-1.8l0.3-0.4c0.3-0.3,0.7-0.4,1.1-0.2l0.3,0.2
	c0.3,0.2,0.5,0.6,0.5,0.9l-0.6,1.6l0.7-0.1c0.1,0,0.3,0.1,0.3,0.2l0,0l0,0c0,0.1,0,0.2-0.2,0.3l-1.2,0.5l-1.1,1.5L115.2,145.9z"/>
<path class="st7" d="M144.1,153.5l0.3-1c0.1-0.4,0.1-0.8,0.1-1.1l-0.4-2.1l-0.1-0.4c-0.1-0.4-0.6-0.7-1-0.6l-0.3,0.1
	c-0.4,0.1-0.7,0.4-0.8,0.7v1.6l-0.6-0.4c-0.1-0.1-0.3,0-0.4,0.1l0,0c-0.1,0.1-0.1,0.2,0,0.3l1,0.9l0.5,2L144.1,153.5z"/>
<path class="st9" d="M128.4,171.6c-0.5,2.1,0.8,18.3-3.4,22.3c1.6,0,4.7-1.4,4.6-3.5c-0.3-5.9-0.2-11.9,0.4-17.8
	c1.6-2.1,6.2-3.5,9-6.2C138.8,166.4,128.9,169.5,128.4,171.6z"/>
<path class="st12" d="M122.9,160.6l0.7-0.7c0.6,0.6,1.3,1.1,2.1,1.4c0.6,0.2,1.1,0.3,1.7,0.4l0.5,1.3
	C127.9,162.9,124.2,162.7,122.9,160.6z"/>
<path class="st14" d="M128.1,156.6c0.2,0,0.4-0.1,0.5-0.3c0.2-0.3,0.1-1.6,0.7-1.8c0.9-0.3,3.2,0.9,3.4-2.6c0.1-1.8-0.7-2.2-0.7-3.2
	c0,0,0.1,0.5-4.5,0.2s-6,3.7-6.1,5.6s0.8,5.1,3.9,5.5c1-0.4,1.9-1,2.6-1.9c-0.1-0.2-0.9-0.2-0.8-0.9
	C127.2,156.8,127.6,156.5,128.1,156.6C128.1,156.5,128.1,156.5,128.1,156.6z"/>
<path class="st6" d="M111,63.4L87,49.6c-0.4-0.3-0.8-0.3-1.2-0.1l0,0l-2.3,1.3l1.6,0.6v17.4c0,1.5,0.7,2.8,1.9,3.7l22.9,13.2v2
	l2.4-1.4l0,0c0.5-0.4,0.7-0.9,0.6-1.5V67.1C112.9,65.6,112.2,64.3,111,63.4z"/>
<path class="st0" d="M108.6,87.8L84.6,74c-1.2-0.8-1.9-2.2-1.9-3.7V52.4c0-1.4,0.9-2.1,1.9-1.5l24,13.8c1.2,0.9,1.9,2.2,1.9,3.7
	v17.8C110.5,87.7,109.7,88.4,108.6,87.8z"/>
<path class="st12" d="M108.6,64.8L84.6,51c-0.5-0.3-1.1-0.3-1.5,0.1c0.3,0,0.6,0.1,0.9,0.2l24,13.8c1.2,0.8,1.9,2.2,1.9,3.7v17.8
	c0,0.5-0.1,1-0.4,1.4c0.6,0,1.1-0.7,1.1-1.7V68.5C110.5,67,109.8,65.6,108.6,64.8z"/>
<path class="st12" d="M92.7,67.8c0,1-0.7,1.4-1.6,0.9c-1-0.6-1.5-1.7-1.6-2.8c0-1,0.7-1.4,1.6-0.9C92.1,65.6,92.7,66.6,92.7,67.8z"
	/>
<path class="st12" d="M97.6,70.6c0,1-0.7,1.4-1.6,0.9c-1-0.6-1.6-1.7-1.6-2.8c0-1,0.7-1.4,1.6-0.9C97,68.4,97.6,69.5,97.6,70.6z"/>
<path class="st12" d="M102.5,73.4c0,1-0.7,1.4-1.6,0.9c-1-0.6-1.6-1.7-1.6-2.8c0-1,0.7-1.4,1.6-0.9
	C101.9,71.3,102.5,72.3,102.5,73.4z"/>
<path class="st0" d="M261.9,51.4c17,1,35.4,2.7,52.3-0.2c7.5-1.3,4.3-12.8-3.2-11.5c-7.8,1.3-16.2,0.8-24.1,0.7
	c-8.4-0.1-16.7-0.5-25-1C254.2,39,254.3,50.9,261.9,51.4L261.9,51.4z"/>
<path class="st0" d="M260.2,49.1c17.9,0.6,35.7,0,53.5-1.8c7.5-0.7,7.6-12.7,0-11.9c-17.8,1.7-35.6,2.3-53.5,1.8
	C252.5,37,252.5,48.9,260.2,49.1z"/>
<text transform="matrix(1 0 0 1 296.91 50.17)" class="st24 st25 st26"> </text>
<text transform="matrix(1 0 0 1 69.5702 313.5)" class="st27 st28 st29">© 2019 Copyright - F8 | Abiyu, Laksono, Nadia, Oristania | APAP-C | Fasilkom UI</text>
<text transform="matrix(1 0 0 1 14.9199 301.5)" class="st0 st30 st31">SISTEM INFORMASI TATA USAHA</text>
<text transform="matrix(1 0 0 1 277.0396 51.6843)" class="st12 st25 st32">SI TU</text>
</svg>
